<svg xmlns="http://www.w3.org/2000/svg" xmlns:xlink="http://www.w3.org/1999/xlink" width="500" zoomAndPan="magnify" viewBox="0 0 375 374.999991" height="500" preserveAspectRatio="xMidYMid meet" version="1.2"><defs/><g id="973e09d134"><g style="fill:#ffffff;fill-opacity:1;"><g transform="translate(63.14513, 202.874987)"><path style="stroke:none" d="M 13.765625 1.28125 C 11.328125 1.28125 9.171875 0.875 7.296875 0.0625 C 5.421875 -0.75 3.945312 -1.890625 2.875 -3.359375 C 1.8125 -4.828125 1.28125 -6.523438 1.28125 -8.453125 C 1.28125 -11.054688 2.398438 -13.316406 4.640625 -15.234375 C 6.878906 -17.148438 10.625 -18.429688 15.875 -19.078125 L 23.875 -20.03125 C 24.6875 -20.125 25.328125 -20.394531 25.796875 -20.84375 C 26.265625 -21.289062 26.5 -21.851562 26.5 -22.53125 C 26.5 -24.539062 25.625 -26.148438 23.875 -27.359375 C 22.125 -28.578125 19.84375 -29.1875 17.03125 -29.1875 C 15.019531 -29.1875 13.222656 -28.8125 11.640625 -28.0625 C 10.066406 -27.320312 8.820312 -26.351562 7.90625 -25.15625 C 6.988281 -23.957031 6.488281 -22.71875 6.40625 -21.4375 L 1.984375 -23.296875 C 2.191406 -25.085938 2.96875 -26.757812 4.3125 -28.3125 C 5.664062 -29.875 7.460938 -31.144531 9.703125 -32.125 C 11.941406 -33.113281 14.445312 -33.609375 17.21875 -33.609375 C 19.988281 -33.609375 22.429688 -33.128906 24.546875 -32.171875 C 26.660156 -31.210938 28.3125 -29.847656 29.5 -28.078125 C 30.695312 -26.304688 31.296875 -24.203125 31.296875 -21.765625 L 31.296875 -5.375 C 31.296875 -4.738281 31.457031 -4.21875 31.78125 -3.8125 C 32.101562 -3.40625 32.519531 -3.203125 33.03125 -3.203125 C 34.007812 -3.203125 34.882812 -3.84375 35.65625 -5.125 L 38.28125 -2.046875 C 37.59375 -1.066406 36.640625 -0.269531 35.421875 0.34375 C 34.210938 0.96875 32.988281 1.28125 31.75 1.28125 C 30.175781 1.28125 28.914062 0.78125 27.96875 -0.21875 C 27.03125 -1.226562 26.519531 -2.457031 26.4375 -3.90625 L 26.375 -5.375 L 26.3125 -5.375 C 25.15625 -3.320312 23.5 -1.695312 21.34375 -0.5 C 19.1875 0.6875 16.660156 1.28125 13.765625 1.28125 Z M 14.59375 -3.140625 C 16.851562 -3.140625 18.867188 -3.597656 20.640625 -4.515625 C 22.410156 -5.429688 23.804688 -6.6875 24.828125 -8.28125 C 25.859375 -9.882812 26.375 -11.734375 26.375 -13.828125 L 26.375 -16.125 L 16.390625 -14.921875 C 12.503906 -14.453125 9.820312 -13.640625 8.34375 -12.484375 C 6.875 -11.328125 6.140625 -10.003906 6.140625 -8.515625 C 6.140625 -6.890625 6.925781 -5.585938 8.5 -4.609375 C 10.082031 -3.628906 12.113281 -3.140625 14.59375 -3.140625 Z M 14.59375 -3.140625 "/></g></g><g style="fill:#ffffff;fill-opacity:1;"><g transform="translate(101.428785, 202.874987)"><path style="stroke:none" d="M 20.546875 -33.609375 C 24.265625 -33.609375 27.1875 -32.488281 29.3125 -30.25 C 31.445312 -28.007812 32.515625 -24.882812 32.515625 -20.875 L 32.515625 0 L 27.59375 0 L 27.59375 -20.359375 C 27.59375 -23.128906 26.832031 -25.328125 25.3125 -26.953125 C 23.800781 -28.578125 21.765625 -29.390625 19.203125 -29.390625 C 17.023438 -29.390625 15.101562 -28.914062 13.4375 -27.96875 C 11.78125 -27.03125 10.46875 -25.726562 9.5 -24.0625 C 8.539062 -22.40625 8.0625 -20.46875 8.0625 -18.25 L 8.0625 0 L 3.203125 0 L 3.203125 -32.328125 L 7.625 -32.328125 L 8.0625 -27.53125 L 8.125 -27.53125 C 9.488281 -29.488281 11.195312 -30.988281 13.25 -32.03125 C 15.300781 -33.082031 17.734375 -33.609375 20.546875 -33.609375 Z M 20.546875 -33.609375 "/></g></g><g style="fill:#ffffff;fill-opacity:1;"><g transform="translate(135.551162, 202.874987)"><path style="stroke:none" d="M 17.28125 1.28125 C 14.25 1.28125 11.796875 0.351562 9.921875 -1.5 C 8.046875 -3.351562 7.109375 -5.753906 7.109375 -8.703125 L 7.109375 -28.296875 L 0 -28.296875 L 0 -32.328125 L 7.109375 -32.328125 L 7.109375 -41.9375 L 11.96875 -43.078125 L 11.96875 -32.328125 L 26.4375 -32.328125 L 26.4375 -28.296875 L 11.96875 -28.296875 L 11.96875 -9.21875 C 11.96875 -7.382812 12.488281 -5.878906 13.53125 -4.703125 C 14.582031 -3.523438 15.984375 -2.9375 17.734375 -2.9375 C 19.359375 -2.9375 20.84375 -3.503906 22.1875 -4.640625 C 23.53125 -5.773438 24.347656 -7.382812 24.640625 -9.46875 L 28.609375 -7.8125 C 28.316406 -5.9375 27.625 -4.3125 26.53125 -2.9375 C 25.445312 -1.570312 24.09375 -0.53125 22.46875 0.1875 C 20.84375 0.914062 19.113281 1.28125 17.28125 1.28125 Z M 17.28125 1.28125 "/></g></g><g style="fill:#ffffff;fill-opacity:1;"><g transform="translate(164.423951, 202.874987)"><path style="stroke:none" d="M 3.203125 0 L 3.203125 -47.046875 L 8.0625 -47.046875 L 8.0625 -27.53125 L 8.125 -27.53125 C 9.488281 -29.488281 11.195312 -30.988281 13.25 -32.03125 C 15.300781 -33.082031 17.734375 -33.609375 20.546875 -33.609375 C 24.265625 -33.609375 27.1875 -32.488281 29.3125 -30.25 C 31.445312 -28.007812 32.515625 -24.882812 32.515625 -20.875 L 32.515625 0 L 27.59375 0 L 27.59375 -20.359375 C 27.59375 -23.128906 26.832031 -25.328125 25.3125 -26.953125 C 23.800781 -28.578125 21.765625 -29.390625 19.203125 -29.390625 C 17.023438 -29.390625 15.101562 -28.914062 13.4375 -27.96875 C 11.78125 -27.03125 10.46875 -25.726562 9.5 -24.0625 C 8.539062 -22.40625 8.0625 -20.46875 8.0625 -18.25 L 8.0625 0 Z M 3.203125 0 "/></g></g><g style="fill:#ffffff;fill-opacity:1;"><g transform="translate(199.826728, 202.874987)"><path style="stroke:none" d="M 13.765625 1.28125 C 11.328125 1.28125 9.171875 0.875 7.296875 0.0625 C 5.421875 -0.75 3.945312 -1.890625 2.875 -3.359375 C 1.8125 -4.828125 1.28125 -6.523438 1.28125 -8.453125 C 1.28125 -11.054688 2.398438 -13.316406 4.640625 -15.234375 C 6.878906 -17.148438 10.625 -18.429688 15.875 -19.078125 L 23.875 -20.03125 C 24.6875 -20.125 25.328125 -20.394531 25.796875 -20.84375 C 26.265625 -21.289062 26.5 -21.851562 26.5 -22.53125 C 26.5 -24.539062 25.625 -26.148438 23.875 -27.359375 C 22.125 -28.578125 19.84375 -29.1875 17.03125 -29.1875 C 15.019531 -29.1875 13.222656 -28.8125 11.640625 -28.0625 C 10.066406 -27.320312 8.820312 -26.351562 7.90625 -25.15625 C 6.988281 -23.957031 6.488281 -22.71875 6.40625 -21.4375 L 1.984375 -23.296875 C 2.191406 -25.085938 2.96875 -26.757812 4.3125 -28.3125 C 5.664062 -29.875 7.460938 -31.144531 9.703125 -32.125 C 11.941406 -33.113281 14.445312 -33.609375 17.21875 -33.609375 C 19.988281 -33.609375 22.429688 -33.128906 24.546875 -32.171875 C 26.660156 -31.210938 28.3125 -29.847656 29.5 -28.078125 C 30.695312 -26.304688 31.296875 -24.203125 31.296875 -21.765625 L 31.296875 -5.375 C 31.296875 -4.738281 31.457031 -4.21875 31.78125 -3.8125 C 32.101562 -3.40625 32.519531 -3.203125 33.03125 -3.203125 C 34.007812 -3.203125 34.882812 -3.84375 35.65625 -5.125 L 38.28125 -2.046875 C 37.59375 -1.066406 36.640625 -0.269531 35.421875 0.34375 C 34.210938 0.96875 32.988281 1.28125 31.75 1.28125 C 30.175781 1.28125 28.914062 0.78125 27.96875 -0.21875 C 27.03125 -1.226562 26.519531 -2.457031 26.4375 -3.90625 L 26.375 -5.375 L 26.3125 -5.375 C 25.15625 -3.320312 23.5 -1.695312 21.34375 -0.5 C 19.1875 0.6875 16.660156 1.28125 13.765625 1.28125 Z M 14.59375 -3.140625 C 16.851562 -3.140625 18.867188 -3.597656 20.640625 -4.515625 C 22.410156 -5.429688 23.804688 -6.6875 24.828125 -8.28125 C 25.859375 -9.882812 26.375 -11.734375 26.375 -13.828125 L 26.375 -16.125 L 16.390625 -14.921875 C 12.503906 -14.453125 9.820312 -13.640625 8.34375 -12.484375 C 6.875 -11.328125 6.140625 -10.003906 6.140625 -8.515625 C 6.140625 -6.890625 6.925781 -5.585938 8.5 -4.609375 C 10.082031 -3.628906 12.113281 -3.140625 14.59375 -3.140625 Z M 14.59375 -3.140625 "/></g></g><g style="fill:#ffffff;fill-opacity:1;"><g transform="translate(238.110382, 202.874987)"><path style="stroke:none" d="M 20.546875 -33.609375 C 24.265625 -33.609375 27.1875 -32.488281 29.3125 -30.25 C 31.445312 -28.007812 32.515625 -24.882812 32.515625 -20.875 L 32.515625 0 L 27.59375 0 L 27.59375 -20.359375 C 27.59375 -23.128906 26.832031 -25.328125 25.3125 -26.953125 C 23.800781 -28.578125 21.765625 -29.390625 19.203125 -29.390625 C 17.023438 -29.390625 15.101562 -28.914062 13.4375 -27.96875 C 11.78125 -27.03125 10.46875 -25.726562 9.5 -24.0625 C 8.539062 -22.40625 8.0625 -20.46875 8.0625 -18.25 L 8.0625 0 L 3.203125 0 L 3.203125 -32.328125 L 7.625 -32.328125 L 8.0625 -27.53125 L 8.125 -27.53125 C 9.488281 -29.488281 11.195312 -30.988281 13.25 -32.03125 C 15.300781 -33.082031 17.734375 -33.609375 20.546875 -33.609375 Z M 20.546875 -33.609375 "/></g></g><g style="fill:#004aad;fill-opacity:1;"><g transform="translate(275.807564, 202.874987)"><path style="stroke:none" d="M 13.765625 1.28125 C 11.328125 1.28125 9.171875 0.875 7.296875 0.0625 C 5.421875 -0.75 3.945312 -1.890625 2.875 -3.359375 C 1.8125 -4.828125 1.28125 -6.523438 1.28125 -8.453125 C 1.28125 -11.054688 2.398438 -13.316406 4.640625 -15.234375 C 6.878906 -17.148438 10.625 -18.429688 15.875 -19.078125 L 23.875 -20.03125 C 24.6875 -20.125 25.328125 -20.394531 25.796875 -20.84375 C 26.265625 -21.289062 26.5 -21.851562 26.5 -22.53125 C 26.5 -24.539062 25.625 -26.148438 23.875 -27.359375 C 22.125 -28.578125 19.84375 -29.1875 17.03125 -29.1875 C 15.019531 -29.1875 13.222656 -28.8125 11.640625 -28.0625 C 10.066406 -27.320312 8.820312 -26.351562 7.90625 -25.15625 C 6.988281 -23.957031 6.488281 -22.71875 6.40625 -21.4375 L 1.984375 -23.296875 C 2.191406 -25.085938 2.96875 -26.757812 4.3125 -28.3125 C 5.664062 -29.875 7.460938 -31.144531 9.703125 -32.125 C 11.941406 -33.113281 14.445312 -33.609375 17.21875 -33.609375 C 19.988281 -33.609375 22.429688 -33.128906 24.546875 -32.171875 C 26.660156 -31.210938 28.3125 -29.847656 29.5 -28.078125 C 30.695312 -26.304688 31.296875 -24.203125 31.296875 -21.765625 L 31.296875 -5.375 C 31.296875 -4.738281 31.457031 -4.21875 31.78125 -3.8125 C 32.101562 -3.40625 32.519531 -3.203125 33.03125 -3.203125 C 34.007812 -3.203125 34.882812 -3.84375 35.65625 -5.125 L 38.28125 -2.046875 C 37.59375 -1.066406 36.640625 -0.269531 35.421875 0.34375 C 34.210938 0.96875 32.988281 1.28125 31.75 1.28125 C 30.175781 1.28125 28.914062 0.78125 27.96875 -0.21875 C 27.03125 -1.226562 26.519531 -2.457031 26.4375 -3.90625 L 26.375 -5.375 L 26.3125 -5.375 C 25.15625 -3.320312 23.5 -1.695312 21.34375 -0.5 C 19.1875 0.6875 16.660156 1.28125 13.765625 1.28125 Z M 14.59375 -3.140625 C 16.851562 -3.140625 18.867188 -3.597656 20.640625 -4.515625 C 22.410156 -5.429688 23.804688 -6.6875 24.828125 -8.28125 C 25.859375 -9.882812 26.375 -11.734375 26.375 -13.828125 L 26.375 -16.125 L 16.390625 -14.921875 C 12.503906 -14.453125 9.820312 -13.640625 8.34375 -12.484375 C 6.875 -11.328125 6.140625 -10.003906 6.140625 -8.515625 C 6.140625 -6.890625 6.925781 -5.585938 8.5 -4.609375 C 10.082031 -3.628906 12.113281 -3.140625 14.59375 -3.140625 Z M 14.59375 -3.140625 "/></g></g></g></svg>